#!OML:ASF H:\LiuWeirdWalks\Patient Classification 1\Patient 1\Session 1\male.ASF
:FULLY-SPECIFIED
:DEGREES
174
root -0.219183 17.1349 -24.7566 11.0146 5.30563 -5.73709
lowerback 7.01759 0.962004 3.37564
upperback -2.3553 1.99873 6.10529
thorax -6.53844 0.991773 4.27813
lowerneck -14.6059 3.22975 8.31774
upperneck 14.3216 5.10318 -14.2776
head 7.39945 1.66991 -5.55947
rclavicle 2.76311e-014 8.90555e-014
rhumerus -30.2136 0.847615 -79.4783
rradius 21.2991
rwrist -2.55651
rhand -16.1751 -5.27121
rfingers 7.12502
rthumb 10.0312 -35.0121
lclavicle 2.76311e-014 8.90555e-014
lhumerus -52.3085 18.3455 74.9929
lradius 27.8595
lwrist 6.3962
lhand -13.556 1.41691
lfingers 7.12502
lthumb 12.5572 31.0195
rfemur 17.2316 -0.192848 30.2383
rtibia -1.59028e-014
rfoot -10.4866 -24.8557
rtoes -12.124
lfemur -51.7935 -0.529064 -11.2041
ltibia 26.5293
lfoot -10.1591 10.1804
ltoes -17.6124
175
root -0.197323 17.1157 -24.5783 11.1083 5.11497 -5.70057
lowerback 6.99985 1.12964 3.32204
upperback -2.35461 2.21024 6.00288
thorax -6.53537 1.0957 4.17194
lowerneck -14.6374 3.16642 8.31101
upperneck 14.3531 5.00851 -14.2227
head 7.40138 1.62721 -5.55102
rclavicle 4.17448e-015 -2.54444e-014
rhumerus -30.0123 1.15352 -79.7507
rradius 21.5674
rwrist -2.81712
rhand -16.2287 -5.10696
rfingers 7.12502
rthumb 9.97957 -34.8504
lclavicle 4.17448e-015 -2.54444e-014
lhumerus -53.1062 19.0724 73.6723
lradius 27.4532
lwrist 5.70742
lhand -13.4807 1.63996
lfingers 7.12502
lthumb 12.6298 31.2381
rfemur 17.7609 -0.156886 30.0667
rtibia 1.59028e-014
rfoot -10.0847 -24.6062
rtoes -13.0285
lfemur -51.9109 -0.656167 -11.118
ltibia 27.1959
lfoot -10.3262 10.1248
ltoes -17.6749
176
root -0.174048 17.0978 -24.3944 11.1914 4.92306 -5.61927
lowerback 6.98011 1.2941 3.22726
upperback -2.35214 2.41191 5.87875
thorax -6.52879 1.19593 4.06725
lowerneck -14.664 3.09123 8.30554
upperneck 14.3676 4.89388 -14.1596
head 7.3943 1.57627 -5.54176
rclavicle -9.74045e-015 -1.59028e-015
rhumerus -29.8362 1.46424 -80.0359
rradius 21.8826
rwrist -3.09651
rhand -16.2725 -4.99305
rfingers 7.12502
rthumb 9.93728 -34.7385
lclavicle -9.74045e-015 -1.59028e-015
lhumerus -53.913 19.7591 72.3274
lradius 27.0475
lwrist 5.02897
lhand -13.4689 1.88994
lfingers 7.12502
lthumb 12.6412 31.4874
rfemur 18.3187 -0.127704 29.8389
rtibia 4.13472e-014
rfoot -9.59839 -24.3459
rtoes -13.9235
lfemur -51.9719 -0.808682 -11.0827
ltibia 28.0598
lfoot -10.5441 10.0093
ltoes -17.7519
177
root -0.14914 17.0811 -24.2041 11.2533 4.72177 -5.49879
lowerback 6.96036 1.45044 3.08058
upperback -2.34279 2.59703 5.75017
thorax -6.51575 1.29006 3.9894
lowerneck -14.7408 3.01324 8.26376
upperneck 14.4429 4.78234 -14.0693
head 7.4147 1.52396 -5.51811
rclavicle -9.54166e-015 2.8625e-014
rhumerus -29.7095 1.8523 -80.3303
rradius 22.2793
rwrist -3.44679
rhand -16.2963 -4.92276
rfingers 7.12502
rthumb 9.9143 -34.6693
lclavicle -9.54166e-015 2.8625e-014
lhumerus -54.7256 20.4488 70.9542
lradius 26.6055
lwrist 4.3277
lhand -13.4999 2.18844
lfingers 7.12502
lthumb 12.6113 31.7878
rfemur 18.9193 -0.098006 29.5598
rtibia 3.18055e-014
rfoot -9.01817 -24.0737
rtoes -14.7919
lfemur -51.9534 -0.987986 -11.0902
ltibia 29.1011
lfoot -10.8773 9.86373
ltoes -17.7956
178
root -0.122838 17.0654 -24.0076 11.2992 4.50867 -5.34522
lowerback 6.94274 1.59626 2.88937
upperback -2.33334 2.76392 5.61838
thorax -6.50486 1.37698 3.93578
lowerneck -14.7951 2.95774 8.24305
upperneck 14.4792 4.6966 -13.9917
head 7.4227 1.48576 -5.49856
rclavicle 1.11319e-014 -1.59028e-015
rhumerus -29.6049 2.31291 -80.6375
rradius 22.7253
rwrist -3.83897
rhand -16.3172 -4.90747
rfingers 7.12502
rthumb 9.89417 -34.655
lclavicle 1.11319e-014 -1.59028e-015
lhumerus -55.5541 21.1564 69.5339
lradius 26.1128
lwrist 3.56382
lhand -13.5623 2.47772
lfingers 7.12502
lthumb 12.5511 32.0807
rfemur 19.5509 -0.0639094 29.2398
rtibia -6.36111e-015
rfoot -8.31512 -23.7962
rtoes -15.6559
lfemur -51.896 -1.17582 -11.148
ltibia 30.3852
lfoot -11.4154 9.72452
ltoes -17.8188
179
root -0.0946582 17.0512 -23.8047 11.3381 4.29096 -5.15896
lowerback 6.91157 1.73118 2.6585
upperback -2.32646 2.91184 5.48458
thorax -6.49008 1.45617 3.9053
lowerneck -14.8757 2.90219 8.19328
upperneck 14.5585 4.61613 -13.8904
head 7.44874 1.44869 -5.46635
rclavicle 4.57205e-015 -1.59028e-014
rhumerus -29.5851 2.90064 -80.9649
rradius 23.2997
rwrist -4.32626
rhand -16.3167 -4.95479
rfingers 7.12502
rthumb 9.89466 -34.7023
lclavicle 4.57205e-015 -1.59028e-014
lhumerus -56.3861 21.8736 68.0768
lradius 25.5623
lwrist 2.7531
lhand -13.6163 2.82479
lfingers 7.12502
lthumb 12.4991 32.431
rfemur 20.1999 -0.0304386 28.8803
rtibia -3.18055e-015
rfoot -7.46961 -23.5139
rtoes -16.5103
lfemur -51.7508 -1.34894 -11.2873
ltibia 31.7383
lfoot -12.0995 9.61539
ltoes -17.8446
180
root -0.0638575 17.0171 -23.5985 11.3838 4.07616 -4.93337
lowerback 6.88323 1.8513 2.37508
upperback -2.33823 3.03674 5.35085
thorax -6.49879 1.52628 3.90769
lowerneck -14.9252 2.85073 8.13116
upperneck 14.6101 4.54158 -13.7821
head 7.46072 1.41609 -5.42815
rclavicle -9.34288e-015 -6.52014e-014
rhumerus -29.6486 3.59204 -81.2989
rradius 23.9826
rwrist -4.865
rhand -16.2728 -5.03615
rfingers 7.12502
rthumb 9.93702 -34.7816
lclavicle -9.34288e-015 -6.52014e-014
lhumerus -57.2471 22.5929 66.5858
lradius 24.9746
lwrist 1.87446
lhand -13.6546 3.18442
lfingers 7.12502
lthumb 12.4621 32.7929
rfemur 20.882 -0.00403925 28.4782
rtibia -3.49861e-014
rfoot -6.51249 -23.2368
rtoes -17.3368
lfemur -51.6318 -1.49612 -11.5268
ltibia 33.1337
lfoot -12.822 9.56421
ltoes -17.9233
181
root -0.0326224 17.0111 -23.3842 11.4259 3.85027 -4.66641
lowerback 6.85552 1.96188 2.04375
upperback -2.36411 3.14501 5.20867
thorax -6.52467 1.59011 3.93036
lowerneck -14.9617 2.80272 8.07084
upperneck 14.6676 4.47247 -13.6723
head 7.47306 1.38671 -5.38929
rclavicle 1.88845e-014 3.02153e-014
rhumerus -29.8151 4.35957 -81.6454
rradius 24.7924
rwrist -5.44217
rhand -16.2077 -5.13709
rfingers 7.12502
rthumb 9.99974 -34.8795
lclavicle 1.88845e-014 3.02153e-014
lhumerus -58.1342 23.3059 65.0483
lradius 24.3545
lwrist 0.915831
lhand -13.6709 3.53404
lfingers 7.12502
lthumb 12.4464 33.1434
rfemur 21.5235 0.0266921 28.0264
rtibia -2.22639e-014
rfoot -5.34875 -22.9363
rtoes -18.1345
lfemur -51.3676 -1.59964 -11.874
ltibia 34.419
lfoot -13.5757 9.616
ltoes -18.0412
182
root -0.000433396 17.013 -23.1647 11.4858 3.63994 -4.33355
lowerback 6.8261 2.03958 1.61486
upperback -2.45427 3.20427 5.06779
thorax -6.62132 1.63465 4.01586
lowerneck -14.8265 2.76343 8.04324
upperneck 14.6882 4.41847 -13.5884
head 7.44599 1.37102 -5.36196
rclavicle -3.85642e-014 -6.83819e-014
rhumerus -30.166 5.21235 -82.0009
rradius 25.7095
rwrist -6.01328
rhand -16.1236 -5.15782
rfingers 7.12502
rthumb 10.0809 -34.8964
lclavicle -3.85642e-014 -6.83819e-014
lhumerus -59.1627 23.9925 63.4351
lradius 23.7329
lwrist -0.081207
lhand -13.6717 3.8134
lfingers 7.12502
lthumb 12.4456 33.4228
rfemur 22.1271 0.0344012 27.5046
rtibia 6.04305e-014
rfoot -3.96642 -22.6036
rtoes -18.946
lfemur -51.0935 -1.67474 -12.3501
ltibia 35.5832
lfoot -14.186 9.75537
ltoes -18.1324
183
root 0.0323541 17.0237 -22.9401 11.5507 3.4611 -3.95379
lowerback 6.79277 2.35655 1.38376
upperback -2.47816 3.57839 4.6251
thorax -6.63257 1.81741 3.629
lowerneck -15.2832 2.56272 8.47058
upperneck 14.9018 4.02049 -13.5068
head 7.55385 1.19292 -5.46024
rclavicle 6.10269e-014 0
rhumerus -30.4789 4.88406 -82.2773
rradius 26.6589
rwrist -6.34822
rhand -16.0592 -4.97054
rfingers 7.12502
rthumb 10.1431 -34.706
lclavicle 6.10269e-014 0
lhumerus -59.3464 23.9633 62.1118
lradius 22.9682
lwrist -1.17447
lhand -13.6848 3.95627
lfingers 7.12502
lthumb 12.433 33.5665
rfemur 22.6974 0.00532203 26.9348
rtibia -1.11319e-013
rfoot -2.37182 -22.235
rtoes -19.7157
lfemur -50.7749 -1.74237 -12.9104
ltibia 36.5135
lfoot -14.5222 9.96549
ltoes -18.1765
184
root 0.065168 17.0426 -22.7114 11.6205 3.32778 -3.54929
lowerback 6.78207 2.82929 1.29881
upperback -2.46906 4.15951 3.96707
thorax -6.60147 2.08983 2.9078
lowerneck -16.195 2.29745 9.28397
upperneck 15.2749 3.42365 -13.4687
head 7.77549 0.923221 -5.67316
rclavicle 1.41137e-014 -5.88403e-014
rhumerus -30.7485 3.66124 -82.4885
rradius 27.5757
rwrist -6.45919
rhand -15.9984 -4.54181
rfingers 7.12502
rthumb 10.2017 -34.2744
lclavicle 1.41137e-014 -5.88403e-014
lhumerus -58.8966 23.4579 61.0052
lradius 22.1162
lwrist -2.32603
lhand -13.7191 3.96384
lfingers 7.12502
lthumb 12.4 33.5761
rfemur 23.2189 -0.0709276 26.3446
rtibia -4.77083e-014
rfoot -0.528821 -21.8177
rtoes -20.4249
lfemur -50.4595 -1.80626 -13.5191
ltibia 37.2962
lfoot -14.5821 10.2396
ltoes -18.127
185
root 0.0976872 17.0678 -22.4794 11.6737 3.2592 -3.14339
lowerback 6.81982 3.41414 1.34884
upperback -2.39734 4.89074 3.14285
thorax -6.49809 2.4265 1.9227
lowerneck -17.8374 1.80839 9.75066
upperneck 15.8387 2.44469 -12.9416
head 8.12488 0.477269 -5.71891
rclavicle -1.51076e-014 -7.95139e-016
rhumerus -30.9111 1.70032 -82.6411
rradius 28.4245
rwrist -6.36982
rhand -15.9439 -3.85777
rfingers 7.12502
rthumb 10.2543 -33.5878
lclavicle -1.51076e-014 -7.95139e-016
lhumerus -57.8242 22.6411 60.1106
lradius 21.1821
lwrist -3.52617
lhand -13.7675 3.8957
lfingers 7.12502
lthumb 12.3533 33.5107
rfemur 23.707 -0.211621 25.7638
rtibia 3.18055e-015
rfoot 1.60736 -21.3324
rtoes -21.0358
lfemur -50.0749 -1.88246 -14.1367
ltibia 37.8622
lfoot -14.3728 10.544
ltoes -17.9535
186
root 0.130157 17.0963 -22.2448 11.6977 3.24718 -2.78585
lowerback 6.91629 3.98402 1.46285
upperback -2.27752 5.60735 2.30954
thorax -6.34775 2.75494 0.900936
lowerneck -19.9927 1.20874 9.79817
upperneck 16.5646 1.29846 -12.0668
head 8.59571 -0.0397062 -5.61462
rclavicle 6.25178e-014 1.35174e-014
rhumerus -30.9237 -0.462856 -82.7671
rradius 29.1224
rwrist -6.12917
rhand -15.9097 -3.02144
rfingers 7.12502
rthumb 10.2873 -32.7499
lclavicle 6.25178e-014 1.35174e-014
lhumerus -56.508 21.9057 59.2667
lradius 20.2127
lwrist -4.7747
lhand -13.8457 3.7157
lfingers 7.12502
lthumb 12.2779 33.3353
rfemur 24.161 -0.401125 25.245
rtibia 3.18055e-015
rfoot 4.0451 -20.7934
rtoes -21.4953
lfemur -49.6232 -1.94934 -14.7074
ltibia 38.3242
lfoot -14.0233 10.8755
ltoes -17.7104
187
root 0.162401 17.1499 -22.0044 11.6856 3.27938 -2.50679
lowerback 7.02952 4.41115 1.54811
upperback -2.14539 6.14146 1.6351
thorax -6.19256 3.00069 0.0880867
lowerneck -22.1965 0.487298 9.16179
upperneck 17.299 0.099321 -10.8378
head 9.08486 -0.567005 -5.29035
rclavicle 1.23246e-014 5.56597e-015
rhumerus -30.8859 -2.22052 -82.8882
rradius 29.683
rwrist -5.84747
rhand -15.9144 -2.10595
rfingers 7.12502
rthumb 10.2827 -31.8346
lclavicle 1.23246e-014 5.56597e-015
lhumerus -55.4224 21.6035 58.3277
lradius 19.275
lwrist -6.04097
lhand -13.9555 3.5202
lfingers 7.12502
lthumb 12.172 33.1461
rfemur 24.5351 -0.62338 24.819
rtibia 3.18055e-015
rfoot 6.84021 -20.2093
rtoes -21.862
lfemur -48.9743 -1.97978 -15.206
ltibia 38.651
lfoot -13.6696 11.2101
ltoes -17.4716
